<?xml version="1.0" encoding="UTF-8"?><svg id="Layer_1" xmlns="http://www.w3.org/2000/svg" xmlns:xlink="http://www.w3.org/1999/xlink" viewBox="0 0 566.93 566.93"><defs><style>.cls-1{fill:none;}.cls-2{letter-spacing:-.01em;}.cls-3{letter-spacing:0em;}.cls-4{clip-path:url(#clippath);}.cls-5,.cls-6{fill:#fff;}.cls-7{fill:#0b1213;}.cls-8{fill:#1d1d1b;}.cls-9,.cls-10{fill:#3aaa35;}.cls-6{font-size:41.33px;}.cls-6,.cls-10{font-family:Gotham-Medium, Gotham;}.cls-11{letter-spacing:-.05em;}.cls-12{clip-path:url(#clippath-1);}.cls-10{font-size:86.3px;}</style><clipPath id="clippath"><path class="cls-1" d="M104.59,354.26l-.28,2.41-.4,3.01c-2.15,42.6,8.44,77,31.47,102.27,26.52,29.09,69.64,45.67,124.7,47.96,.18,0,.87,0,.87,0,9.64,.05,18.74,.1,27.43,.1,7.15,0,13.21-.03,18.52-.1,55.09-2.29,98.22-18.87,124.74-47.96,23.03-25.26,33.62-59.65,31.47-102.2-.07-.52-.4-3.09-.41-3.13l-.28-2.36H104.59Z"/></clipPath><clipPath id="clippath-1"><path class="cls-1" d="M283.51,153.18c-25.14-.02-48.47-6.68-71.31-20.35-26,14.53-48.89,17.38-79.52,17.38-6.59,0-13.37-.58-20.18-1.73,29.58,52.68,19.33,103.38,4.89,137.42H449.64c-14.44-34.04-24.69-84.74,4.88-137.42-6.81,1.15-13.58,1.73-20.18,1.73-30.63,0-53.52-2.86-79.52-17.38-22.84,13.67-46.17,20.33-71.32,20.35"/></clipPath></defs><g><path class="cls-7" d="M471.95,116.36l-8.53,3.26c-10.56,3.65-21.55,5.58-31.76,5.58-29.63,0-49.05-2.9-72.94-18.72l-5.59-3.7-5.51,3.82c-21.14,14.68-41.53,21.52-64.14,21.52s-43.01-6.84-64.15-21.52l-5.51-3.82-5.59,3.7c-23.9,15.82-43.31,18.72-72.94,18.72-10.21,0-21.2-1.93-31.76-5.58l-8.67-3.1-19.12,26.27,5.22,7.29c18.11,24.06,24.94,48.82,24.94,72.12,0,43.45-23.76,81.85-42.47,101.27l-6.74,7,6.88,6.86c3.69,3.68,10.26,10.5,15.69,16.21-.02,.22-.22,2.99-.22,2.99l-.05,.55c-.22,4.22-.34,8.38-.34,12.47,0,44.13,13.05,80.82,38.86,109.2,29.89,32.86,76.62,52.47,131.85,55.52,13.71,12.49,27.65,22.86,28.28,23.32l5.91,4.38,5.9-4.39c.62-.46,14.48-10.82,28.18-23.31,55.23-3.05,101.96-22.67,131.84-55.52,25.81-28.38,38.86-65.07,38.86-109.2,0-4.09-.11-8.25-.34-12.47v-.1l-.05-.54s-.19-2.68-.21-2.9c5.03-5.29,11.82-12.34,15.69-16.21l6.88-6.86-6.74-7c-18.71-19.42-42.47-57.82-42.47-101.28,0-23.3,6.83-48.06,24.94-72.12l5.74-7.13"/><path class="cls-9" d="M283.55,553.65s-16.07-11.92-30.59-25.48c-94.97-3.94-173.55-57.2-167.55-170,.35-2.98,.06-2.78,.57-7.85-5.45-5.76-14.46-15.16-19.21-19.91,34.07-35.35,73.81-116.2,18.64-189.52,3.63-5.83,6.25-7.77,11.65-15.45,11.03,3.81,23.29,6.23,35.61,6.23,31.64,0,53.24-3.14,79.8-20.73,21,14.58,43.77,23.7,71.03,23.7s50.03-9.12,71.03-23.7c26.56,17.59,48.16,20.73,79.8,20.73,12.32,0,24.58-2.42,35.61-6.23,5.4,7.68,8.02,9.61,11.65,15.45-55.17,73.32-15.42,154.17,18.64,189.52-4.76,4.75-13.77,14.15-19.21,19.91,.51,5.08,.21,4.88,.57,7.85,6.01,112.8-72.58,166.06-167.54,170-14.52,13.56-30.51,25.48-30.51,25.48"/><path class="cls-5" d="M288.39,510.01c-8.69,0-17.8-.05-27.43-.1,0,0-.7,0-.87,0-55.06-2.29-98.18-18.87-124.7-47.96-23.03-25.26-33.62-59.67-31.47-102.26l.4-3.01,.28-2.41H462.43l.28,2.36s.34,2.61,.41,3.13c2.15,42.55-8.44,76.94-31.47,102.2-26.52,29.09-69.65,45.67-124.74,47.96-5.31,.07-11.37,.11-18.52,.11"/></g><g class="cls-4"><rect class="cls-9" x="266.78" y="344.34" width="33.46" height="198.17"/><rect class="cls-9" x="195.33" y="344.34" width="33.46" height="198.17"/><rect class="cls-9" x="409.69" y="344.34" width="33.46" height="198.17"/><rect class="cls-9" x="338.24" y="344.34" width="33.46" height="198.17"/><rect class="cls-9" x="123.87" y="344.34" width="33.46" height="198.17"/></g><g><path class="cls-7" d="M463.59,351.45H102.09l-.57,4.85-.41,3.12c-2.21,43.45,8.62,78.56,32.19,104.42,27.04,29.66,70.85,46.56,126.7,48.88,.05,0,.94,0,.94,0,9.54,.05,18.78,.1,27.46,.1,6.56,0,12.79-.03,18.58-.11,55.89-2.32,99.7-19.22,126.74-48.88,23.58-25.86,34.41-60.96,32.2-104.33,0-.08-.42-3.22-.42-3.22l-.57-4.78-1.35-.06Zm-3.66,5.62c.04,.33,.3,2.3,.38,2.92,2.09,41.73-8.26,75.39-30.75,100.06-25.99,28.51-68.43,44.78-122.74,47.04-5.28,.07-11.31,.11-18.43,.11-8.67,0-17.78-.05-27.43-.1,0,0-.6,0-.82,0-54.27-2.26-96.7-18.53-122.69-47.04-22.49-24.67-32.83-58.35-30.74-100.12l.38-2.86H459.93Z"/><path class="cls-5" d="M117.38,285.9c14.44-34.04,24.69-84.74-4.89-137.42,6.81,1.15,13.58,1.73,20.18,1.73,30.63,0,53.52-2.86,79.52-17.38,22.84,13.67,46.17,20.33,71.31,20.35,25.15-.02,48.48-6.68,71.32-20.35,26,14.53,48.89,17.38,79.52,17.38,6.59,0,13.37-.58,20.18-1.73-29.58,52.68-19.33,103.38-4.88,137.42H117.38Z"/></g><g class="cls-12"><path class="cls-9" d="M351.02,133.08v152.61h16.11V141.4c-5.28-2.23-10.58-4.97-16.04-8.37l-.06,.04Z"/><path class="cls-9" d="M384.1,133.08v152.61h16.11V141.4c-5.28-2.23-10.58-4.97-16.04-8.37l-.06,.04Z"/><path class="cls-9" d="M417.24,133.03l-.07,.04v152.61h16.11V141.4c-5.28-2.23-10.58-4.97-16.04-8.37"/><path class="cls-9" d="M284.86,133.08v152.61h16.11V141.4c-5.28-2.23-10.58-4.97-16.04-8.37l-.06,.04Z"/><path class="cls-9" d="M317.94,133.08v152.61h16.11V141.4c-5.28-2.23-10.58-4.97-16.04-8.37l-.06,.04Z"/></g><g><path class="cls-7" d="M354.78,129.57l-.75,.46c-22.59,13.67-45.66,20.32-70.51,20.34-24.85-.02-47.92-6.67-70.51-20.34l-.76-.46-.77,.43c-25.74,14.55-48.38,17.39-78.8,17.39-7.31,0-14.85-.73-22.42-2.18l-3.26-.62,1.68,2.87c31.25,53.48,20.16,105.18,5.35,139.14l-.92,2.11H453.93l-.92-2.11c-14.81-33.96-25.9-85.66,5.35-139.14l1.68-2.87-3.26,.62c-7.57,1.45-15.11,2.18-22.42,2.18-30.42,0-53.06-2.84-78.8-17.39l-.77-.43Zm-142.63,6.49c22.84,13.39,46.21,19.91,71.37,19.92,25.15-.02,48.52-6.54,71.36-19.92,25.95,14.14,48.94,16.95,79.47,16.95,4.94,0,9.97-.32,15.04-.95-25.78,49.89-17.31,97.58-3.95,131.01H121.58c13.36-33.43,21.83-81.12-3.95-131.01,5.07,.63,10.11,.95,15.05,.95,30.53,0,53.52-2.81,79.47-16.95"/><path class="cls-8" d="M354.78,129.57l-.75,.46c-22.59,13.67-45.66,20.32-70.51,20.34-24.85-.02-47.92-6.67-70.51-20.34l-.76-.46-.77,.43c-25.74,14.55-48.38,17.39-78.8,17.39-7.31,0-14.85-.73-22.42-2.18l-3.26-.62,1.68,2.87c31.25,53.48,20.16,105.18,5.35,139.14l-.92,2.11H453.93l-.92-2.11c-14.81-33.96-25.9-85.66,5.35-139.14l1.68-2.87-3.26,.62c-7.57,1.45-15.11,2.18-22.42,2.18-30.42,0-53.06-2.84-78.8-17.39l-.77-.43Zm-142.63,6.49c22.84,13.39,46.21,19.91,71.37,19.92,25.15-.02,48.52-6.54,71.36-19.92,25.95,14.14,48.94,16.95,79.47,16.95,4.94,0,9.97-.32,15.04-.95-25.78,49.89-17.31,97.58-3.95,131.01H121.58c13.36-33.43,21.83-81.12-3.95-131.01,5.07,.63,10.11,.95,15.05,.95,30.53,0,53.52-2.81,79.47-16.95"/><path class="cls-9" d="M331.25,62.55c-.97,3.22-1.98,6.11-3.43,8.75-1.45,2.62-2.83,5.19-3.65,6.58-1.09,1.86-3.16,5.4-4.52,7.59-.93,1.5-2.79,4.47-5.85,4.31-1.85-.1-3.82-.53-3.84-3.02-.02-2.31,4.02-15.47,4.43-15.62,.65-.22,1.2,1.11,1.68,2.33,.66,1.65,1.25,2.92,1.83,2.56,.79-.49,2.13-4.95,3.02-7.08,.97-2.32,2.01-4.96,2.53-5.88,.42-.73-.5-1.88-1.28-1.44-.79,.45-1.83,1.12-2.26,1.41-.7,.49-3.24,2.63-3.5,1.93-.18-.49,1.69-2.86,2.55-3.9,.73-.88,1.76-1.9,1.24-2.73-.39-.62-3.35-.69-5.44-1.06-2.13-.37-4.63-.95-5.5-.95s-.96,1.23-.66,1.82c1.04,2.1,2.73,6.06,1.94,6.22-.64,.13-.98-.38-1.87-1.29-1.52-1.56-1.83-2.1-2.59-2.1-1.1,0-1.29,3.32-1.78,5.66-.38,1.81-1.06,4.42-1.44,6.23-.06,.84,.58,1.1,1.02,1.2,.64,.14,2.44-1.56,3.04-2.07,.54-.46,1.78-1.66,2.02-.98,.36,1.01-5.36,12.76-6.17,14.28-.82,1.52-1.86,5.55-6.39,5.63-4.35,.07-6.58-3.98-6.81-7-.29-3.85,.23-6.96,1.03-9.48,2.54-8.01,6.65-14.49,7.15-21.15,.13-1.82-.39-6.02,.27-6.44,.5-.33,2.7-.04,4.69-.1,4.96-.16,9.89-3.72,15.14-3.83,8.18-.17,9.66,2.6,10.1,3.11,.72,.84,2.22,2.84,2.76,4.08,1.6,3.72,1.71,8.61,.55,12.45m-23.91,35.22c-.76,1.9-2.48,3.02-3.84,2.5-1.36-.52-1.86-2.48-1.1-4.39,.76-1.9,2.48-3.02,3.84-2.49,1.36,.52,1.86,2.48,1.1,4.38m-23.54,2.42c-.08,0-.17,0-.25-.01h-.07c-.08,0-.16,.01-.25,.01-2.56-.03-4.61-2.09-4.58-4.6,.03-2.51,2.13-4.52,4.69-4.48,.04,0,.09,0,.13,0h0s.03,0,.03,0c.01,0,.02,0,.03,0h0s.09,0,.13-.01c2.56-.03,4.66,1.98,4.69,4.48,.03,2.51-2.02,4.57-4.58,4.6m-6.34-16.27c-.23,3.02-2.46,7.08-6.81,7-4.53-.08-5.58-4.1-6.39-5.63-.82-1.52-6.54-13.27-6.17-14.28,.25-.68,1.48,.52,2.03,.98,.6,.51,2.41,2.21,3.04,2.07,.45-.1,1.08-.36,1.02-1.2-.38-1.82-1.06-4.42-1.44-6.23-.49-2.34-.68-5.66-1.78-5.66-.76,0-1.07,.54-2.59,2.1-.89,.91-1.23,1.43-1.87,1.29-.79-.16,.9-4.13,1.94-6.23,.29-.59,.2-1.82-.66-1.82s-3.37,.58-5.5,.95c-2.09,.37-5.05,.44-5.44,1.06-.52,.83,.5,1.85,1.24,2.73,.87,1.04,2.74,3.4,2.55,3.9-.26,.7-2.79-1.44-3.5-1.93-.42-.3-1.46-.96-2.25-1.41-.78-.44-1.69,.71-1.28,1.44,.53,.92,1.56,3.56,2.53,5.88,.9,2.14,2.24,6.59,3.02,7.08,.57,.36,1.16-.91,1.82-2.56,.49-1.22,1.04-2.55,1.68-2.33,.41,.14,4.45,13.31,4.43,15.62-.03,2.49-2,2.92-3.84,3.02-3.06,.16-4.92-2.8-5.85-4.31-1.36-2.2-3.43-5.73-4.52-7.59-.83-1.39-2.2-3.95-3.65-6.58-1.46-2.65-2.46-5.54-3.44-8.76-1.17-3.84-.91-8.53,.69-12.26,.53-1.24,4.53-7.55,12.71-7.38,5.25,.11,10.18,3.66,15.14,3.83,1.99,.07,4.19-.22,4.69,.1,.66,.43,.14,4.63,.27,6.44,.5,6.67,4.61,13.14,7.15,21.15,.8,2.54,1.32,5.63,1.03,9.49m-13.93,16.34c-1.36,.52-3.08-.6-3.84-2.5-.76-1.9-.27-3.86,1.1-4.39,1.36-.52,3.09,.6,3.84,2.49,.76,1.91,.26,3.87-1.1,4.39m19.87-51.27s.05,0,.08,0h.07s.05,0,.08,0c4.13,0,7.47,2.13,7.47,4.74,0,2.61-3.35,4.73-7.48,4.72-.02,0-.04,0-.07,0h-.07s-.04,0-.07,0c-4.13,0-7.48-2.11-7.48-4.72,0-2.61,3.34-4.74,7.47-4.74m55.45,.98c-.48-.14-2.08-5.65-6.63-9.79-4.55-4.14-8.33-3.19-8.69-3.9-.57-1.1-1.79-5.29-6.36-5.26-1.37,.01-3.64,.57-4.86,1.65-1.6,1.41-2.09,3.57-1.7,5.28,.19,.84-2.2,1.04-3.21,1.31-2.65,.68-6.57,1.13-9.77,.15-3.02-.93-5.64-2.74-7.25-5.03-1.44-2.03-2.46-3.46-2.85-5.19-.46-1.98-.66-3.77,.37-5.05,.86-1.07,3.7-.81,5.01,.39,1.37,1.25,.77,3.37,2.25,3.53,1.21-1.58,3.35-4.96,3.23-7.97-.13-3.51-.9-6.48-2.63-8.4-1.75,.02-.45,5.37-5,5.42-2.38,.03-4.29-2.15-3.86-4.95,.49-3.2,3.76-3.48,3.7-4.53-.08-1.36-4.16-2.59-7.05-2.68h0s-.02,0-.03,0c-.01,0-.02,0-.03,0h0c-2.89,.1-6.97,1.33-7.05,2.69-.06,1.06,3.21,1.33,3.7,4.53,.43,2.8-1.49,4.97-3.86,4.95-4.55-.05-3.24-5.4-5-5.42-1.73,1.92-2.5,4.89-2.63,8.4-.11,3.01,2.02,6.39,3.23,7.97,1.48-.16,.88-2.28,2.26-3.53,1.31-1.2,4.15-1.46,5.01-.39,1.03,1.28,.83,3.07,.37,5.05-.4,1.73-1.41,3.16-2.85,5.19-1.62,2.29-4.23,4.1-7.25,5.03-3.2,.98-7.12,.53-9.77-.15-1.02-.27-3.41-.47-3.21-1.31,.39-1.7-.1-3.87-1.7-5.28-1.22-1.08-3.49-1.64-4.86-1.65-4.57-.03-5.79,4.16-6.36,5.26-.36,.71-4.14-.25-8.69,3.9-4.55,4.15-6.15,9.66-6.63,9.79-1.85,.53-4.68,1.76-4.73,5.47-.04,3.4,2.31,5.31,4.02,5.42,1.2,.08,1.2,3.31,1.81,5.21,.52,2.82,5.65,10.64,7.05,13.14,.54,.95,2.43,4.84,2.82,5.63,.01,.02,2.11,4.9,2.26,7.48,.04,.69-1.94,1.69-2.57,2.76-.64,1.09-1.17,2.25-.23,4.68,.98,2.54,2.63,3.29,4.07,3.23,1.62-.08-.15,7.06,.97,7.81,1.55,1.03,17.72-4.2,39.83-3.97h.07c22.11-.23,38.27,5,39.82,3.97,1.13-.74-.64-7.88,.98-7.81,1.43,.07,3.1-.84,3.93-3.32,.83-2.48,.33-3.39-.14-4.52-.48-1.14-2.56-2.14-2.52-2.83,.14-2.58,2.24-7.46,2.26-7.48,.39-.79,2.28-4.68,2.82-5.63,1.41-2.5,6.53-10.32,7.05-13.14,.61-1.9,.61-5.13,1.81-5.21,1.71-.11,4.06-2.01,4.02-5.42-.03-3.71-2.86-4.94-4.71-5.47"/><path class="cls-5" d="M283.51,543.36c29.36,0,53.17-23.8,53.17-53.17s-23.8-53.17-53.17-53.17-53.17,23.8-53.17,53.17,23.8,53.17,53.17,53.17"/><path class="cls-7" d="M324.42,522.28c-.47-.14-1.32-.43-2.28-.91-.96-.48-2.48-1.26-3.25-1.66,.18-1.48,.56-5.13,.43-8.04-.12-2.73-.56-6.41-.77-8.13,.82-1.54,4.04-7.65,5.5-11.23,1.68-4.11,3-8.48,3.32-9.53,1.24-.29,3.74-.85,5.05-.85,.85,0,1.83,.09,2.48,.17,.41,2.64,.63,5.34,.63,8.09,0,12.1-4.15,23.24-11.11,32.09m-28.91,18.53c1.01-1,2.39-2.5,3.77-4.35,2.53-3.41,3.14-5.58,3.17-5.67h-.02c1.52-.57,5.39-2.1,8.57-4.12,3.4-2.17,6.39-4.91,7.43-5.9,.79,.41,2.26,1.17,3.21,1.64,.78,.39,1.5,.66,2.02,.84-7.11,8.61-16.93,14.91-28.14,17.56m-24.35-.09c-3.48-2.5-3.66-2.67-5.84-4.65l-.42-.39c-1.6-1.45-4-4.1-5.03-5.26,.68-.63,1.98-1.86,3.46-3.51,1.35-1.5,3.18-3.86,3.97-4.88,2.38,.12,8.5,.43,12.59,.43s8.98-.71,10.72-.97c.83,1.05,2.98,3.65,5.27,5.55,2.21,1.82,4.41,3.14,5.38,3.69-.23,.64-.98,2.45-2.9,5.03-2.25,3.03-4.58,5.12-5.02,5.5-3.18,.61-6.46,.93-9.82,.93-4.26,0-8.4-.52-12.36-1.49m-30.61-21.25c.23,0,.46,.02,.7,.02,.73,0,1.54-.05,1.57-.05v-.2c.92,.93,3.72,3.62,7.05,6.01,3.15,2.27,7.15,4.43,8.76,5.27l-.13,.11c.14,.16,3.51,3.99,5.62,5.91l.42,.39c1.52,1.39,2.09,1.9,3.44,2.91-11.27-3.54-20.9-10.81-27.43-20.37m-8.22-38.53c.25,.14,.59,.34,1.01,.55,.23,.11,.79,.36,1.25,.55,.14,1.8,.53,5.79,1.39,9.32,1.16,4.73,3.77,9.74,4.72,11.46-.23,1.38-.53,4.06-.18,7.31,.39,3.66,1.35,6.89,1.76,8.18-.29,.01-.67,.02-1.03,.02-.56,0-1.15-.04-1.5-.07-5.22-8.1-8.25-17.74-8.25-28.07,0-3.15,.28-6.24,.82-9.25m91.26-23.89l-6.2-3.29,.13-.11c-.15-.17-3.65-4.12-7.89-7.11-4.06-2.86-7.75-4.74-10.1-5.81,.05,0,.1,0,.14,0,9.44,3.09,17.71,8.82,23.91,16.31m-7.42,.97c-.13,1.92-.56,4.15-.78,5.2-1.81,.12-5.95,.39-8.14,.52-2.86,.17-10.27,.26-11.93,.28-1.52-1.17-5.48-4.19-8.02-5.92-2.74-1.87-6.58-3.94-7.88-4.63,.15-1.45,.47-4.2,.85-6.25,.39-2.13,.92-5.03,1.09-6.01,1.86-.15,8.39-.63,11.51-.63,1.31,0,2.56,.02,3.69,.05l-.04,.11c.06,.02,5.81,2.08,12.45,6.75,3.43,2.41,6.44,5.57,7.38,6.59-.04,1.15-.12,3.16-.18,3.94m-46.97-17.84c1.54,.07,3.7,.19,5.02,.3,1.76,.15,4.68,.51,5.98,.68-.2,1.1-.69,3.82-1.06,5.84-.41,2.21-.75,5.2-.89,6.59-1.7,.87-5.98,3.08-8.25,4.5-3.17,1.98-6.56,4.68-7.94,5.81-1.51-.08-6.99-.36-9.07-.37-1.85-.01-6.57,.17-8.55,.25,.11-1.18,.34-3.37,.7-4.8,.34-1.35,1.04-3.96,1.41-5.35,6.19-6.27,13.96-10.97,22.65-13.47m-27.69,61.7c-1.05-1.96-3.36-6.56-4.4-10.79-1.13-4.6-1.42-10.03-1.43-10.08h0c.7-2.12,2.22-6.39,4.07-9.45,1.36-2.24,3.65-5.55,4.38-6.59,1.7-.07,6.93-.27,8.85-.27,1.84,.01,6.58,.24,8.53,.34,.25,1.43,.93,5.19,1.82,8.31,1.01,3.52,2.8,7.74,3.52,9.4-.77,1.01-3.78,5.05-6.01,9.06-2.27,4.08-4.63,9.09-5.42,10.79-1.22,.05-4.11,.15-6.96-.03-3.08-.19-5.79-.53-6.96-.69m49.04,18.46c-1.59,.24-6.71,.97-10.65,.97-4.2,0-10.55-.32-12.74-.44-1.18-1.47-4.05-5.12-6-8.31-2.04-3.34-4.02-7.56-4.79-9.25,.65-1.4,3.11-6.69,5.48-10.94,2.17-3.89,5.09-7.82,5.89-8.87,1.81,.08,7.49,.32,9.69,.36,2.2,.04,8.03-.07,9.98-.11,1.32,2.22,4.79,8.08,6.12,10.28,1.34,2.21,4.94,8.01,6.14,9.94-.88,1.27-2.93,4.27-4.56,7.19-1.92,3.43-3.84,7.58-4.56,9.18m27.23-17.79c-1.56-.04-5.52-.11-7.93,.02-4.03,.21-7.9,.58-9.24,.72-1.24-2-4.77-7.68-6.09-9.86-1.34-2.21-4.84-8.13-6.14-10.32,.78-1.55,2.84-5.74,4.17-9.12,1.02-2.58,2.59-7.12,3.17-8.82,2.22-.03,8.9-.12,11.6-.28,2.28-.13,6.63-.42,8.33-.53,.96,1.31,3.52,4.85,5.67,8.22,2.06,3.24,4.22,7.93,5.01,9.68-.13,.46-1.53,5.19-3.33,9.61-1.33,3.25-4.15,8.65-5.22,10.68m-34.25-65.53c-29.32,0-53.17,23.85-53.17,53.17s23.85,53.17,53.17,53.17,53.17-23.85,53.17-53.17-23.85-53.17-53.17-53.17"/></g><text class="cls-6" transform="translate(122.39 334.58)"><tspan class="cls-11" x="0" y="0">K</tspan><tspan class="cls-3" x="27.73" y="0">C</tspan><tspan class="cls-2" x="58.11" y="0">V</tspan><tspan x="88.7" y="0">V ELEWIJT</tspan></text><text class="cls-10" transform="translate(154.34 249.01)"><tspan x="0" y="0">55</tspan></text></svg>